# Blender v2.82 (sub 7) OBJ File: 'building.blend'
# www.blender.org
mtllib bulding_segment.mtl
o Plane
v 2.000000 -1.000000 4.000000
v 4.000000 -1.000000 4.000000
v 2.000000 1.000000 4.000000
v 4.000000 1.000000 4.000000
v 2.000000 3.000000 4.000000
v 4.000000 3.000000 4.000000
v 2.000000 5.000000 4.000000
v 4.000000 5.000000 4.000000
v 6.000000 -1.000000 4.000000
v 6.000000 1.000000 4.000000
v 6.000000 3.000000 4.000000
v 6.000000 5.000000 4.000000
v 8.000000 -1.000000 4.000000
v 8.000000 1.000000 4.000000
v 8.000000 3.000000 4.000000
v 8.000000 5.000000 4.000000
v 8.000000 -1.000000 2.000000
v 8.000000 1.000000 2.000000
v 8.000000 3.000000 2.000000
v 8.000000 5.000000 2.000000
v 8.000000 -1.000000 0.000000
v 8.000000 1.000000 -0.000000
v 8.000000 3.000000 0.000000
v 8.000000 5.000000 0.000000
v -2.000000 -1.000000 4.000000
v -4.000000 -1.000000 4.000000
v -2.000000 1.000000 4.000000
v -4.000000 1.000000 4.000000
v -2.000000 3.000000 4.000000
v -4.000000 3.000000 4.000000
v -2.000000 5.000000 4.000000
v -4.000000 5.000000 4.000000
v -6.000000 -1.000000 4.000000
v -6.000000 1.000000 4.000000
v -6.000000 3.000000 4.000000
v -6.000000 5.000000 4.000000
v -8.000000 -1.000000 4.000000
v -8.000000 1.000000 4.000000
v -8.000000 3.000000 4.000000
v -8.000000 5.000000 4.000000
v -8.000000 -1.000000 2.000000
v -8.000000 1.000000 2.000000
v -8.000000 3.000000 2.000000
v -8.000000 5.000000 2.000000
v -8.000000 -1.000000 0.000000
v -8.000000 1.000000 -0.000000
v -8.000000 3.000000 0.000000
v -8.000000 5.000000 0.000000
v 0.000000 -1.000000 4.000000
v 0.000000 1.000000 4.000000
v 0.000000 3.000000 4.000000
v 0.000000 5.000000 4.000000
vt 0.583353 0.000000
vt 0.666682 0.000000
vt 0.666682 0.333333
vt 0.583353 0.333333
vt 0.666682 0.666666
vt 0.583353 0.666666
vt 0.666682 0.999999
vt 0.583353 0.999999
vt 0.750011 0.666666
vt 0.750011 0.999999
vt 0.750011 0.333333
vt 0.750011 0.000000
vt 0.833341 0.666666
vt 0.833341 1.000000
vt 0.833341 0.333333
vt 0.833341 0.000000
vt 0.916670 0.666666
vt 0.916670 0.999999
vt 0.916670 0.333333
vt 0.916670 0.000000
vt 1.000000 0.666666
vt 1.000000 0.999999
vt 1.000000 0.333333
vt 1.000000 0.000000
vt 0.500024 1.000000
vt 0.500024 0.666666
vt 0.500024 0.333333
vt 0.500024 0.000000
vt 0.416694 0.000000
vt 0.416694 0.333333
vt 0.333364 0.333333
vt 0.333364 0.000000
vt 0.416694 0.666666
vt 0.333364 0.666667
vt 0.416694 0.999999
vt 0.333364 1.000000
vt 0.250035 1.000000
vt 0.250035 0.666667
vt 0.250035 0.333333
vt 0.250035 0.000000
vt 0.166705 1.000000
vt 0.166705 0.666667
vt 0.166705 0.333334
vt 0.166705 0.000001
vt 0.083376 1.000000
vt 0.083376 0.666667
vt 0.083376 0.333334
vt 0.083376 0.000000
vt 0.000046 1.000000
vt 0.000047 0.666667
vt 0.000046 0.333334
vt 0.000046 0.000000
vn 0.0000 0.0000 1.0000
vn 1.0000 0.0000 0.0000
vn -1.0000 0.0000 0.0000
usemtl Material.001
s off
f 1/1/1 2/2/1 4/3/1 3/4/1
f 3/4/1 4/3/1 6/5/1 5/6/1
f 5/6/1 6/5/1 8/7/1 7/8/1
f 8/7/1 6/5/1 11/9/1 12/10/1
f 6/5/1 4/3/1 10/11/1 11/9/1
f 4/3/1 2/2/1 9/12/1 10/11/1
f 12/10/1 11/9/1 15/13/1 16/14/1
f 11/9/1 10/11/1 14/15/1 15/13/1
f 10/11/1 9/12/1 13/16/1 14/15/1
f 16/14/2 15/13/2 19/17/2 20/18/2
f 15/13/2 14/15/2 18/19/2 19/17/2
f 14/15/2 13/16/2 17/20/2 18/19/2
f 20/18/2 19/17/2 23/21/2 24/22/2
f 19/17/2 18/19/2 22/23/2 23/21/2
f 18/19/2 17/20/2 21/24/2 22/23/2
f 5/6/1 7/8/1 52/25/1 51/26/1
f 3/4/1 5/6/1 51/26/1 50/27/1
f 1/1/1 3/4/1 50/27/1 49/28/1
f 25/29/1 27/30/1 28/31/1 26/32/1
f 27/30/1 29/33/1 30/34/1 28/31/1
f 29/33/1 31/35/1 32/36/1 30/34/1
f 32/36/1 36/37/1 35/38/1 30/34/1
f 30/34/1 35/38/1 34/39/1 28/31/1
f 28/31/1 34/39/1 33/40/1 26/32/1
f 36/37/1 40/41/1 39/42/1 35/38/1
f 35/38/1 39/42/1 38/43/1 34/39/1
f 34/39/1 38/43/1 37/44/1 33/40/1
f 40/41/3 44/45/3 43/46/3 39/42/3
f 39/42/3 43/46/3 42/47/3 38/43/3
f 38/43/3 42/47/3 41/48/3 37/44/3
f 44/45/3 48/49/3 47/50/3 43/46/3
f 43/46/3 47/50/3 46/51/3 42/47/3
f 42/47/3 46/51/3 45/52/3 41/48/3
f 29/33/1 51/26/1 52/25/1 31/35/1
f 27/30/1 50/27/1 51/26/1 29/33/1
f 25/29/1 49/28/1 50/27/1 27/30/1
